<svg id="Layer_1" data-name="Layer 1" xmlns="http://www.w3.org/2000/svg" xmlns:xlink="http://www.w3.org/1999/xlink"
     viewBox="0 0 2942 825">
    <defs>
        <style>
            .cls-1{fill:url(#linear-gradient);}.cls-2{fill:url(#linear-gradient-2);}.cls-3{fill:url(#linear-gradient-3);}.cls-4{fill:url(#linear-gradient-4);}.cls-5{fill:url(#linear-gradient-5);}.cls-6{fill:url(#linear-gradient-6);}.cls-7{fill:url(#linear-gradient-7);}.cls-8{fill:url(#linear-gradient-8);}.cls-9{fill:url(#linear-gradient-9);}.cls-10{fill:url(#linear-gradient-10);}
        </style>
        <linearGradient id="linear-gradient" x1="198.9" y1="73.32" x2="649.96" y2="789.09"
                        gradientUnits="userSpaceOnUse">
            <stop offset="0" stop-color="#ff512f"/>
            <stop offset="1" stop-color="#e83261"/>
        </linearGradient>
        <linearGradient id="linear-gradient-2" x1="190.66" y1="78.51" x2="641.72" y2="794.28"
                        xlink:href="#linear-gradient"/>
        <linearGradient id="linear-gradient-3" x1="324.92" y1="-6.09" x2="775.98" y2="709.68"
                        xlink:href="#linear-gradient"/>
        <linearGradient id="linear-gradient-4" x1="71.09" y1="153.87" x2="522.15" y2="869.63"
                        xlink:href="#linear-gradient"/>
        <linearGradient id="linear-gradient-5" x1="1065.08" y1="328.51" x2="1216" y2="951.03"
                        xlink:href="#linear-gradient"/>
        <linearGradient id="linear-gradient-6" x1="1441.89" y1="237.16" x2="1592.8" y2="859.68"
                        xlink:href="#linear-gradient"/>
        <linearGradient id="linear-gradient-7" x1="1776.02" y1="156.16" x2="1926.93" y2="778.68"
                        xlink:href="#linear-gradient"/>
        <linearGradient id="linear-gradient-8" x1="2101.36" y1="77.29" x2="2252.27" y2="699.81"
                        xlink:href="#linear-gradient"/>
        <linearGradient id="linear-gradient-9" x1="2404.06" y1="3.9" x2="2554.98" y2="626.42"
                        xlink:href="#linear-gradient"/>
        <linearGradient id="linear-gradient-10" x1="2707.95" y1="-69.76" x2="2858.86" y2="552.76"
                        xlink:href="#linear-gradient"/>
    </defs>
    <title>logo</title>
    <path class="cls-1"
          d="M447,19c18.71,3.1,37.62,4.94,56.12,9.49q167.19,41.09,254.09,189.6c40,68.39,56.24,142.91,51.16,221.64-5.53,85.64-36.11,162-91.46,227.65-63.63,75.53-144.67,121.11-242.19,137.18-9.21,1.52-18.48,2.63-27.72,3.93H380.49a46.26,46.26,0,0,0-5.75-1.29c-56.52-5.38-109.56-22-158.36-50.91Q68.18,668.48,27.87,500.62C23.64,482.94,22,464.87,19,447V380.49a30.71,30.71,0,0,0,1.24-4.91c5.23-56.23,21.57-109.06,50.14-157.72q87-148.1,254-189.38c18.49-4.54,37.39-6.37,56.09-9.48ZM754,413.8c1.82-186.47-153.18-340.16-339.3-340.64-187.36-.47-341.49,154-341.53,340.53S227.18,754.34,413.69,754.35,755.74,600.44,754,413.8Z"/>
    <path class="cls-2"
          d="M248,192.59c6.88.15,11.45,4.53,15.84,9,23.7,24.09,47.29,48.3,71,72.39,47.42,48.17,95.24,96,142.24,144.55q47.4,49,95.85,96.94a124.4,124.4,0,0,1,26.71,39c9.71,22.09,19.92,44,30.06,65.86,2.13,4.6,2.23,8.56-1.21,12.57s-7.94,4.71-12.36,2.86c-29.6-12.38-59.12-25-88.64-37.56-3.73-1.59-6.44-4.61-9.23-7.45Q411.3,482,304.38,373.22q-52.81-53.82-105.29-108c-11.74-12.08-11.62-18,.25-30.18s23.58-23.82,35.39-35.72C238.4,195.65,242.34,192.46,248,192.59Zm.52,24.92a5.64,5.64,0,0,0-4.51,2c-9,9-18,18.15-27.05,27.17-3.35,3.35-1.83,6.06.83,8.74,9.79,9.89,19.62,19.74,29.36,29.68,3.25,3.32,6.2,3.35,9.46,0,8.56-8.71,17.13-17.42,25.86-26,3.16-3.09,3-5.46,0-8.55-9.57-9.7-18.92-19.61-28.4-29.4C252.46,219.66,250.94,217.88,248.51,217.51ZM599.59,604.87c-8.08-17-15.12-32-22.28-46.93-1.25-2.61-3.38-3-5.48-.89q-10.83,10.8-21.54,21.72c-2.28,2.34-2.11,4.74,1,6.16C566.28,591.9,581.33,598.88,599.59,604.87Z"/>
    <path class="cls-3"
          d="M631.4,274.23c.73,4.73-1.58,8.15-4.7,11.31q-64,64.9-127.84,129.91c-4.57,4.67-8.15,5.12-12.66.14-25.38-28-52.58-54.19-79.33-80.81-4.32-4.3-3.66-7.32.31-11.33q64.4-65.08,128.62-130.33c8.05-8.13,14.85-8.26,22.78-.26,23,23.19,45.68,46.64,68.56,69.93C630.34,266.05,632.09,269.65,631.4,274.23ZM533,347.14c0-2.67-1.55-4-2.92-5.43-13.06-13.46-26.09-26.93-39.24-40.29-4.3-4.38-9-7.15-14.73-1.8-5.61,5.2-4.1,9.82.54,14.56,12.92,13.19,25.73,26.48,38.72,39.61,2,2,3.89,6.19,7.48,4A26.53,26.53,0,0,0,533,347.14Zm-58.77-3.77c-3.09.24-5.76,2.32-7.33,5.54-1.74,3.56-1.63,7.4,1.09,10.4,7.26,8,14.48,16,22.25,23.5,6.61,6.35,9.74-1.25,13.81-4.42s3.72-6.25,0-9.78c-7.19-6.87-14.08-14.05-21.12-21.07C480.68,345.32,478.34,343.21,474.18,343.37Zm118.5-56.14a28.76,28.76,0,0,0,9.86-9.79c2.16-3.49-1-5.72-3.12-7.88-6.71-6.87-13.63-13.52-20.23-20.49-4.44-4.67-8.83-6-13.78-1.07-4.68,4.63-4.62,9.42,0,14.08Q576.61,273.59,588,285C589.16,286.16,590.4,287.39,592.68,287.23Zm-67.89,5.08a10,10,0,0,0-8.28,6.09c-1.8,3.8-.85,7.36,1.89,10.22,7.47,7.79,15,15.57,22.73,23.07,5.56,5.38,8.39-.57,11.8-3.46,3.69-3.12,5.51-6.23,1.08-10.55-7.1-6.94-13.8-14.3-20.72-21.43C531.07,294,528.53,292.18,524.79,292.31Zm25.89-24.24c-4.12-.14-7.35,1-8.85,4.51-1.75,4.16-1.71,8.55,1.55,12,7.43,7.82,15.13,15.37,22.69,23.06,3,3,5.86,2.17,7.87-.75,2.5-3.62,10.59-6,6.64-11a160.74,160.74,0,0,0-27.06-26.93A7.31,7.31,0,0,0,550.68,268.07Z"/>
    <path class="cls-4"
          d="M284.17,628c-5,.32-8.74-2.08-12-5.43-22.88-23.32-45.84-46.55-68.54-70-7.58-7.85-7.7-13.85-.18-21.55,37.31-38.22,74.88-76.17,112.24-114.35,4.67-4.78,7.94-3.41,12,.64,27,26.49,53.16,53.69,79.41,80.87,4.95,5.12,2.52,8.11-1.26,11.94q-44.31,44.9-88.45,89.93-11.06,11.25-22.21,22.39C292.14,625.41,288.89,628.16,284.17,628ZM252.88,527.68c-4.19.12-6.76,3.15-8.95,6.53-2,3.14-.83,6,1.36,8.52,13.52,15.69,28.64,29.83,43.22,44.49,5.56,5.6,8.35-.53,11.69-3.39s6-5.86,1.44-10.43C288,559.76,274.75,545.82,261.29,532,259.09,529.78,256.57,527.94,252.88,527.68Zm125.43-25.19a22.88,22.88,0,0,0-2.58-4.18c-6.7-6.86-13.37-13.77-20.35-20.35-4.05-3.83-8.87-5.27-13.56-.84s-4.74,9.45-.37,14.15c6.15,6.61,12.46,13.07,18.8,19.49,2.11,2.14,4.4,5.38,7.84,3.06C372.23,511,376.09,507.63,378.31,502.49Zm-76.62,18.34c-4.26,1-6.9,3.85-9.14,7.19-2.34,3.5-.91,6.82,1.43,9.35,7.12,7.71,14.47,15.21,21.89,22.63,4.51,4.5,7.33.1,9.63-2.72,2.47-3,9.45-5.25,4.44-10.71-7.47-8.14-15.68-15.6-23.68-23.24C305.09,522.21,303.34,521.71,301.69,520.83Zm53.91,4.95c-.24-2.65-1.82-4-3.2-5.36-6.38-6.47-12.86-12.85-19.19-19.37-4.07-4.19-8.38-6.17-13.31-1.68-5.26,4.8-4.71,10.08-.15,14.94,6.23,6.62,12.7,13,19.12,19.44,2,2,4.37,4.39,7.36,2.2C350.07,533.14,353.87,530.1,355.6,525.78Z"/>
    <path class="cls-5"
          d="M1226.39,514.38H1048.53L1012.7,631.19H954.3l148-456.59h73l147.33,456.59h-61Zm-14.6-47.11-74.33-244.89-75,244.89Z"/>
    <path class="cls-6"
          d="M1635.86,381v250.2h-55.74V389c0-53.75-21.9-71-57.74-71-41.14,0-69,25.89-92.91,64.38V631.19h-55.75V282.11h47.79l4.64,52.43c25.88-35.84,62.39-60.4,109.51-60.4C1599.36,274.14,1635.86,314.63,1635.86,381Z"/>
    <path class="cls-7"
          d="M2018.79,296c-27.88,8.63-60.39,10-100.88,10.62,40.49,17.92,61.06,47.12,61.06,89.59,0,68.36-49.11,117.47-131.4,117.47-15.93,0-30.53-2-44.47-6.64-11.94,8-19.24,20.58-19.24,34.51,0,16.59,10.62,29.87,47.78,29.87h55.75c71,0,117.46,40.48,117.46,94.9,0,67-53.75,104.86-160.6,104.86-112.16,0-148.66-33.85-148.66-104.2H1746c0,41.81,19.91,60.39,98.22,60.39,77,0,104.19-20.57,104.19-57.07,0-34.51-27.21-51.76-72.34-51.76H1821c-61,0-88.93-30.53-88.93-65,0-23.23,13.28-45.13,37.83-61.06-39.82-21.23-58.4-51.76-58.4-97.55,0-71,55.75-120.79,132.73-120.79,88.26,2,118.79-11.28,158-29.2Zm-250.2,98.89c0,49.11,27.88,81.63,77,81.63,49.77,0,76.32-29.87,76.32-81.63s-25.89-80.3-77.65-80.3C1794.48,314.63,1768.59,348.47,1768.59,394.93Z"/>
    <path class="cls-8"
          d="M2121.65,631.19h-55.74V141.41l55.74-6.63ZM2188,436.74l148,194.45h-67L2125.63,440.72l132.73-158.61h62.39Z"/>
    <path class="cls-9"
          d="M2634,631.19h-47.79l-4.64-56.41c-25.88,42.47-59.07,64.37-109.5,64.37-61.72,0-97.56-38.49-97.56-106.85V282.11h55.75V526.33c0,49.77,17.25,68.36,57.07,68.36s69-25.89,90.92-62.39V282.11H2634Z"/>
    <path class="cls-10"
          d="M2926,278.13l-9.95,54.41c-10.62-2.65-17.92-4-30.53-4-44.47,0-69.68,31.19-85.61,98.22V631.19h-55.75V282.11h47.78l5.31,73c18.59-53.76,51.1-81,94.24-81C2903.44,274.14,2916.05,275.47,2926,278.13Z"/>
</svg>