<svg id="Layer_1" data-name="Layer 1" xmlns="http://www.w3.org/2000/svg" xmlns:xlink="http://www.w3.org/1999/xlink"
     viewBox="0 0 2673 825">
    <defs>
        <style>
            .cls-1{fill:url(#linear-gradient);}.cls-2{fill:url(#linear-gradient-2);}.cls-3{fill:url(#linear-gradient-3);}.cls-4{fill:url(#linear-gradient-4);}.cls-5{fill:url(#linear-gradient-5);}.cls-6{fill:url(#linear-gradient-6);}.cls-7{fill:url(#linear-gradient-7);}.cls-8{fill:url(#linear-gradient-8);}.cls-9{fill:url(#linear-gradient-9);}
        </style>
        <linearGradient id="linear-gradient" x1="2200.51" y1="-0.71" x2="2255.57" y2="856.94"
                        gradientUnits="userSpaceOnUse">
            <stop offset="0" stop-color="#ff512f"/>
            <stop offset="1" stop-color="#e83261"/>
        </linearGradient>
        <linearGradient id="linear-gradient-2" x1="1198.77" y1="63.6" x2="1253.83" y2="921.25"
                        xlink:href="#linear-gradient"/>
        <linearGradient id="linear-gradient-3" x1="1592.97" y1="38.29" x2="1648.03" y2="895.94"
                        xlink:href="#linear-gradient"/>
        <linearGradient id="linear-gradient-4" x1="1575.84" y1="39.39" x2="1630.89" y2="897.04"
                        xlink:href="#linear-gradient"/>
        <linearGradient id="linear-gradient-5" x1="2363.09" y1="-11.14" x2="2418.15" y2="846.5"
                        xlink:href="#linear-gradient"/>
        <linearGradient id="linear-gradient-6" x1="198.9" y1="73.32" x2="649.96" y2="789.09"
                        xlink:href="#linear-gradient"/>
        <linearGradient id="linear-gradient-7" x1="190.66" y1="78.51" x2="641.72" y2="794.28"
                        xlink:href="#linear-gradient"/>
        <linearGradient id="linear-gradient-8" x1="324.92" y1="-6.09" x2="775.98" y2="709.68"
                        xlink:href="#linear-gradient"/>
        <linearGradient id="linear-gradient-9" x1="71.09" y1="153.87" x2="522.15" y2="869.63"
                        xlink:href="#linear-gradient"/>
    </defs>
    <title>Artboard 1</title>
    <path class="cls-1"
          d="M2662,249.2c-19.89,0-39.79.16-59.67-.18-7.15-.13-10.09,1.93-10.08,9.62q.3,154.31,0,308.6c0,7,1.72,9.7,8.71,6.46,2.57-1.19,5.28-2.08,7.92-3.14,18.76-7.53,12.77-9.7,28.39,5.85,13.24,13.17,12.88,13-2.57,23.87-38.46,27-80.88,28.53-125,20.3-34-6.34-64.94-20.19-94.55-37.52-33.73-19.74-63.42-44.18-85.47-76.7-30.36-44.79-26.36-91.52,9.77-131.89,25-27.91,55.07-49,87.29-67.41,30.77-17.55,63.29-31,97.9-38.75,8.31-1.87,7.27-7.08,7.32-12.73.07-7-5-6.43-9.51-6.43q-214.39,0-428.79,0c-4.62,0-9.31-.39-9.62,6.5-.27,6.05.56,10.07,7.86,11.46,36.1,6.9,69.19,20.88,96.65,45.71,29.26,26.46,49.58,58.35,48.89,99.29-.8,48-24.42,83.45-64.81,108.21-14.87,9.11-31,15.32-47.84,19.9-6.85,1.86-10.61,1.4-11-7-.43-8.75-4.78-18-2.09-26,2.75-8.23,13.44-9.43,20.6-13.6,61.64-35.87,61.05-116.68,10.19-156.91-14.69-11.62-31.09-19.69-48.83-25.49-7-2.3-9.86-1.19-9.67,6.76.37,15.62.1,31.26.1,46.89,0,67.63-.15,135.26.11,202.89a276.43,276.43,0,0,1-4.53,51.66c-1.6,8.59.62,13.29,8.81,17.31,43.39,21.24,84.08,47.54,127.53,68.7a174.08,174.08,0,0,0,17.25,7.3c12.82,4.62,19.73,1.37,24.88-11.32,3.75-9.26,4.29-19.32,6.78-28.72,3.21-.82,3.66,1.61,4.56,3.15a194.83,194.83,0,0,1,13.66,27.44c9.39,24-2.29,46.59-27.35,52.66-13.26,3.22-26.16,2.9-39.18-2.46-37.4-15.39-72.12-36.12-108.37-53.78-11-5.35-21.95-10.72-32.75-16.4-5.74-3-8.6-1.33-11,4.31-4.6,10.74-10.28,20.95-18,29.81-35.35,40.58-95.11,37.06-127.92-7.43-10.6-14.37-16.88-29.93-15.86-48.29,1-19,9.23-33,26-41.92,11.48-6.07,24-8.59,36.88-9.84-.16-3.46-3-3.26-4.82-4a312.87,312.87,0,0,1-104.6-67.48c-16.56-16.12-30.59-34.38-39.51-56.07-14-34.15-7.86-65.61,12.63-95.16,16.11-23.21,37-41.56,59.93-57.59,39.65-27.74,82.3-49.34,129.64-60.86,8.23-2,10.84-7,8.61-15.13a5.33,5.33,0,0,0-5.48-4.35c-2.83-.13-5.68-.16-8.52-.16q-115.5,0-231,0c-12.46,0-12.52-.08-12.54-12.15,0-7.38.07-14.77,0-22.16,0-4.58,2.12-6.83,6.72-6.76,2.56,0,5.12,0,7.67,0h857.59c13.55,0,13.54,0,16.19,13.56,1.14,5.84,1.52,11.85,3.87,17.42ZM2532,447.86q0-59.69,0-119.35c0-11.68-.19-11.69-11.44-7.52a436.63,436.63,0,0,0-58.86,26.93c-28.78,15.82-55.76,34.05-76.8,59.89-23.21,28.51-24.9,54-1.8,82.62,36,44.5,81.66,74.1,138.79,84.65,8.43,1.55,10.31-.72,10.24-8.73C2531.83,526.86,2532,487.36,2532,447.86Zm-504.25-4.08q0-60,0-120.1c0-14-.47-14.38-13.75-9.07-27.83,11.13-53.68,25.9-78,43.23-25,17.77-47.27,38.17-61.81,65.78-10.21,19.38-8.84,38.14,2.89,56.46,11,17.2,25.52,31.08,41.18,43.9,28.68,23.5,60,41.94,96.6,50.11,12.88,2.87,12.93,2.76,12.93-10.21Q2027.77,503.84,2027.75,443.78Zm-32.57,216.49c-11.57-.08-20.57,1.42-26.55,4.44-9.92,5-11.42,13.1-3.84,21.31a20.24,20.24,0,0,0,13.47,6.41c12,1.15,19.87-5.48,26.49-14,3.52-4.54,9.72-9.59,7.11-15.28-2.34-5.11-9.8-2.09-15-2.83A13.73,13.73,0,0,0,1995.18,660.27Z"/>
    <path class="cls-2"
          d="M1205.8,208h256.61c13.16,0,13.15,0,16,13.09,1.16,5.27,2.37,10.53,3.51,15.81,2.53,11.77,2.22,12.18-9.52,12.21-14.49,0-29,.32-43.47-.11-7.52-.22-9.76,2.56-9.75,9.93q.29,144.07.17,288.16c0,2.15-1.1,5,1.15,6.29s4.12-1.25,5.9-2.45c8-5.37,16.11-10.69,23.87-16.44,4.32-3.2,7.35-2.92,10.79,1.18,5.67,6.73,11.61,13.25,17.62,19.68,3.34,3.58,2.7,6.24-.79,9.23-22,18.88-43.61,38.17-65.91,56.66-13.68,11.35-34,5.47-42.25-11.6-6.69-13.83-8.43-28.87-8.82-44-.46-17.89-.4-35.81,0-53.71.17-6.92-2.24-11-8.31-14.1-12.12-6.24-24-12.9-35.82-19.76-5.62-3.27-7.27-1.25-8.39,4.24-5.16,25.27-14,49.21-27.74,71.09-31.78,50.73-76.62,75.52-137.47,69.89-37.25-3.44-71.2-14.17-99.81-39-30.71-26.62-48.58-61.28-59.43-99.57-11.28-39.83-14.36-80.41-5.52-121.34a101.16,101.16,0,0,1,10-26.2c2.4-4.51,5.69-6.79,10.9-6.48q16.57,1,33.17,1.67c6.92.29,5.26,4.2,3.59,8.13a164.89,164.89,0,0,0-12.44,81.74c4.8,49.66,22.5,93.47,62.6,125.15,34.4,27.17,94.46,28.06,126.64-2,17.54-16.38,28.62-37.11,35.7-59.31,22.71-71.28,12-138.1-31.07-199.19-14.39-20.41-35.74-30.09-60.49-32.25-39.06-3.41-55.89,31.46-42.64,62.08,8,18.57,22.53,31.84,37.92,44.16,13.5,10.81,13.6,10.68-1.13,20.34-3.09,2-6.58,3.64-9.18,6.18-10.06,9.81-19.92,7.88-31.51,2-47.37-23.94-65-71.3-56.9-116.79a46,46,0,0,1,6.25-16.68c3.89-6.12,1.24-7-4.47-7-33.53.11-67.06.06-100.6.05-14.07,0-14.14,0-16.33-14-1.06-6.73-1.63-13.53-2.74-20.25-.8-4.86,1-7,5.8-6.84,2.56.07,5.12,0,7.67,0ZM1256,249.12a55,55,0,0,0,3.54,5.09c16.45,17,28.06,37.12,36.49,59a281.23,281.23,0,0,1,19,104.11c0,5.56.1,10.59,6.17,13.64,11.16,5.61,22.14,11.59,33.07,17.64,5.15,2.86,6.33,1,6.32-4.09q-.11-93.75,0-187.49c0-5.95-2.39-8.06-8.12-8-14.2.18-28.4,0-42.61,0Z"/>
    <path class="cls-3"
          d="M1619,228.27c29.2-1,56.28,8.48,80.16,27.09,35.36,27.55,55,89.1,1.53,130.26-45.3,34.87-96.39,44.78-150.79,23.35-37.66-14.84-61.83-51-61.15-88.4.48-26.57,14.47-46.17,34.45-61.78C1550.9,237.19,1582.75,227.68,1619,228.27Zm50.51,84.3c-.1-13.64-10-24.4-25.19-28.45-28.54-7.59-68.76,6.65-86.35,30.58-8.93,12.14-7.71,24.71,3.28,35.12,5.32,5.05,11.55,8.52,18.7,9.54,32.12,4.58,59.31-5.44,81.7-28.64C1666.74,325.48,1669.89,319.13,1669.55,312.57Z"/>
    <path class="cls-4"
          d="M1603.19,428c40.34,2.37,76.69,21.07,99,63,14,26.27,11.95,53.12,1.93,80-12.88,34.55-35.57,62.48-60.48,88.85a591.81,591.81,0,0,1-101.09,85.92c-7.86,5.26-15,2.62-17.8-6.51-1.23-4,2.07-5.64,4.07-7.72,19.9-20.74,38.59-42.5,54.54-66.43,21-31.48,41.39-63.36,51.11-100.55,3.3-12.65,5.26-25.48,3.29-38.75-3.49-23.34-18.51-32.42-42.23-30.16-22.08,2.11-36.7,15.09-47.07,33.83-4.58,8.3-4.91,8.26-10.65,1.17-11.79-14.58-23.44-29.28-35.42-43.69-3.93-4.72-4.37-8.33-.14-13.23C1527.34,444.61,1558.47,428.31,1603.19,428Z"/>
    <path class="cls-5"
          d="M2466.58,639.06c-.71,1.28-1.44,2.81-2.36,4.22-6.48,10-13.08,20-19.47,30-2.45,3.85-4.9,5.66-9.72,3.45-33.84-15.48-65.77-33.52-90.08-62.8-5.64-6.79-5.36-11.46,1-17.14a218.93,218.93,0,0,0,16-16.5c3.16-3.5,5.7-3.26,9.46-.74,10,6.67,18.53,15,28,22.25,18.47,14.09,39,24.31,60.78,32.18C2462.67,634.93,2466,635.05,2466.58,639.06Z"/>
    <path class="cls-6"
          d="M447,19c18.71,3.1,37.62,4.94,56.12,9.49q167.19,41.09,254.09,189.6c40,68.39,56.24,142.91,51.16,221.64-5.53,85.64-36.11,162-91.46,227.65-63.63,75.53-144.67,121.11-242.19,137.18-9.21,1.52-18.48,2.63-27.72,3.93H380.49a46.26,46.26,0,0,0-5.75-1.29c-56.52-5.38-109.56-22-158.36-50.91Q68.18,668.48,27.87,500.62C23.64,482.94,22,464.87,19,447V380.49a30.71,30.71,0,0,0,1.24-4.91c5.23-56.23,21.57-109.06,50.14-157.72q87-148.1,254-189.38c18.49-4.54,37.39-6.37,56.09-9.48ZM754,413.8c1.82-186.47-153.18-340.16-339.3-340.64-187.36-.47-341.49,154-341.53,340.53S227.18,754.34,413.69,754.35,755.74,600.44,754,413.8Z"/>
    <path class="cls-7"
          d="M248,192.59c6.88.15,11.45,4.53,15.84,9,23.7,24.09,47.29,48.3,71,72.39,47.42,48.17,95.24,96,142.24,144.55q47.4,49,95.85,96.94a124.4,124.4,0,0,1,26.71,39c9.71,22.09,19.92,44,30.06,65.86,2.13,4.6,2.23,8.56-1.21,12.57s-7.94,4.71-12.36,2.86c-29.6-12.38-59.12-25-88.64-37.56-3.73-1.59-6.44-4.61-9.23-7.45Q411.3,482,304.38,373.22q-52.81-53.82-105.29-108c-11.74-12.08-11.62-18,.25-30.18s23.58-23.82,35.39-35.72C238.4,195.65,242.34,192.46,248,192.59Zm.52,24.92a5.64,5.64,0,0,0-4.51,2c-9,9-18,18.15-27.05,27.17-3.35,3.35-1.83,6.06.83,8.74,9.79,9.89,19.62,19.74,29.36,29.68,3.25,3.32,6.2,3.35,9.46,0,8.56-8.71,17.13-17.42,25.86-26,3.16-3.09,3-5.46,0-8.55-9.57-9.7-18.92-19.61-28.4-29.4C252.46,219.66,250.94,217.88,248.51,217.51ZM599.59,604.87c-8.08-17-15.12-32-22.28-46.93-1.25-2.61-3.38-3-5.48-.89q-10.83,10.8-21.54,21.72c-2.28,2.34-2.11,4.74,1,6.16C566.28,591.9,581.33,598.88,599.59,604.87Z"/>
    <path class="cls-8"
          d="M631.4,274.23c.73,4.73-1.58,8.15-4.7,11.31q-64,64.9-127.84,129.91c-4.57,4.67-8.15,5.12-12.66.14-25.38-28-52.58-54.19-79.33-80.81-4.32-4.3-3.66-7.32.31-11.33q64.4-65.08,128.62-130.33c8.05-8.13,14.85-8.26,22.78-.26,23,23.19,45.68,46.64,68.56,69.93C630.34,266.05,632.09,269.65,631.4,274.23ZM533,347.14c0-2.67-1.55-4-2.92-5.43-13.06-13.46-26.09-26.93-39.24-40.29-4.3-4.38-9-7.15-14.73-1.8-5.61,5.2-4.1,9.82.54,14.56,12.92,13.19,25.73,26.48,38.72,39.61,2,2,3.89,6.19,7.48,4A26.53,26.53,0,0,0,533,347.14Zm-58.77-3.77c-3.09.24-5.76,2.32-7.33,5.54-1.74,3.56-1.63,7.4,1.09,10.4,7.26,8,14.48,16,22.25,23.5,6.61,6.35,9.74-1.25,13.81-4.42s3.72-6.25,0-9.78c-7.19-6.87-14.08-14.05-21.12-21.07C480.68,345.32,478.34,343.21,474.18,343.37Zm118.5-56.14a28.76,28.76,0,0,0,9.86-9.79c2.16-3.49-1-5.72-3.12-7.88-6.71-6.87-13.63-13.52-20.23-20.49-4.44-4.67-8.83-6-13.78-1.07-4.68,4.63-4.62,9.42,0,14.08Q576.61,273.59,588,285C589.16,286.16,590.4,287.39,592.68,287.23Zm-67.89,5.08a10,10,0,0,0-8.28,6.09c-1.8,3.8-.85,7.36,1.89,10.22,7.47,7.79,15,15.57,22.73,23.07,5.56,5.38,8.39-.57,11.8-3.46,3.69-3.12,5.51-6.23,1.08-10.55-7.1-6.94-13.8-14.3-20.72-21.43C531.07,294,528.53,292.18,524.79,292.31Zm25.89-24.24c-4.12-.14-7.35,1-8.85,4.51-1.75,4.16-1.71,8.55,1.55,12,7.43,7.82,15.13,15.37,22.69,23.06,3,3,5.86,2.17,7.87-.75,2.5-3.62,10.59-6,6.64-11a160.74,160.74,0,0,0-27.06-26.93A7.31,7.31,0,0,0,550.68,268.07Z"/>
    <path class="cls-9"
          d="M284.17,628c-5,.32-8.74-2.08-12-5.43-22.88-23.32-45.84-46.55-68.54-70-7.58-7.85-7.7-13.85-.18-21.55,37.31-38.22,74.88-76.17,112.24-114.35,4.67-4.78,7.94-3.41,12,.64,27,26.49,53.16,53.69,79.41,80.87,4.95,5.12,2.52,8.11-1.26,11.94q-44.31,44.9-88.45,89.93-11.06,11.25-22.21,22.39C292.14,625.41,288.89,628.16,284.17,628ZM252.88,527.68c-4.19.12-6.76,3.15-8.95,6.53-2,3.14-.83,6,1.36,8.52,13.52,15.69,28.64,29.83,43.22,44.49,5.56,5.6,8.35-.53,11.69-3.39s6-5.86,1.44-10.43C288,559.76,274.75,545.82,261.29,532,259.09,529.78,256.57,527.94,252.88,527.68Zm125.43-25.19a22.88,22.88,0,0,0-2.58-4.18c-6.7-6.86-13.37-13.77-20.35-20.35-4.05-3.83-8.87-5.27-13.56-.84s-4.74,9.45-.37,14.15c6.15,6.61,12.46,13.07,18.8,19.49,2.11,2.14,4.4,5.38,7.84,3.06C372.23,511,376.09,507.63,378.31,502.49Zm-76.62,18.34c-4.26,1-6.9,3.85-9.14,7.19-2.34,3.5-.91,6.82,1.43,9.35,7.12,7.71,14.47,15.21,21.89,22.63,4.51,4.5,7.33.1,9.63-2.72,2.47-3,9.45-5.25,4.44-10.71-7.47-8.14-15.68-15.6-23.68-23.24C305.09,522.21,303.34,521.71,301.69,520.83Zm53.91,4.95c-.24-2.65-1.82-4-3.2-5.36-6.38-6.47-12.86-12.85-19.19-19.37-4.07-4.19-8.38-6.17-13.31-1.68-5.26,4.8-4.71,10.08-.15,14.94,6.23,6.62,12.7,13,19.12,19.44,2,2,4.37,4.39,7.36,2.2C350.07,533.14,353.87,530.1,355.6,525.78Z"/>
</svg>